M48
; DRILL file {KiCad (6.0.8)} date Tue Feb  7 20:12:25 2023
; FORMAT={-:-/ absolute / inch / decimal}
; #@! TF.CreationDate,2023-02-07T20:12:25+01:00
; #@! TF.GenerationSoftware,Kicad,Pcbnew,(6.0.8)
; #@! TF.FileFunction,Plated,1,2,PTH
FMAT,2
INCH
; #@! TA.AperFunction,Plated,PTH,ViaDrill
T1C0.0157
; #@! TA.AperFunction,Plated,PTH,ComponentDrill
T2C0.0236
; #@! TA.AperFunction,Plated,PTH,ComponentDrill
T3C0.0374
%
G90
G05
T1
X5.689Y-2.9961
X5.689Y-3.0945
X5.689Y-3.1929
X5.689Y-3.2913
X5.7874Y-2.9961
X5.7874Y-3.0945
X5.7874Y-3.1929
X5.7874Y-3.2913
X5.7874Y-3.3898
X5.8858Y-2.9961
X5.8858Y-3.0945
X5.8858Y-3.1929
X5.8858Y-3.2913
X5.8858Y-3.3898
T3
X5.1683Y-3.4206
X5.2668Y-3.4206
X5.3652Y-3.4206
X5.4636Y-3.4206
T2
G00X5.1535Y-2.6142
M15
G01X5.1535Y-2.6496
M16
G05
G00X5.1772Y-2.8465
M15
G01X5.1772Y-2.8819
M16
G05
G00X5.2126Y-2.9409
M15
G01X5.2126Y-2.9764
M16
G05
G00X5.2776Y-2.9587
M15
G01X5.313Y-2.9587
M16
G05
G00X5.378Y-2.9409
M15
G01X5.378Y-2.9764
M16
G05
G00X5.4134Y-2.8465
M15
G01X5.4134Y-2.8819
M16
G05
G00X5.437Y-2.6142
M15
G01X5.437Y-2.6496
M16
G05
T0
M30
