%TF.GenerationSoftware,KiCad,Pcbnew,(6.0.8)*%
%TF.CreationDate,2023-02-07T20:12:27+01:00*%
%TF.ProjectId,SDVX-aux-board,53445658-2d61-4757-982d-626f6172642e,rev?*%
%TF.SameCoordinates,Original*%
%TF.FileFunction,Legend,Bot*%
%TF.FilePolarity,Positive*%
%FSLAX46Y46*%
G04 Gerber Fmt 4.6, Leading zero omitted, Abs format (unit mm)*
G04 Created by KiCad (PCBNEW (6.0.8)) date 2023-02-07 20:12:27*
%MOMM*%
%LPD*%
G01*
G04 APERTURE LIST*
%ADD10C,0.250000*%
G04 APERTURE END LIST*
D10*
X139233333Y-93547380D02*
X139233333Y-92547380D01*
X138995238Y-92547380D01*
X138852380Y-92595000D01*
X138757142Y-92690238D01*
X138709523Y-92785476D01*
X138661904Y-92975952D01*
X138661904Y-93118809D01*
X138709523Y-93309285D01*
X138757142Y-93404523D01*
X138852380Y-93499761D01*
X138995238Y-93547380D01*
X139233333Y-93547380D01*
X137852380Y-93499761D02*
X137947619Y-93547380D01*
X138138095Y-93547380D01*
X138233333Y-93499761D01*
X138280952Y-93404523D01*
X138280952Y-93023571D01*
X138233333Y-92928333D01*
X138138095Y-92880714D01*
X137947619Y-92880714D01*
X137852380Y-92928333D01*
X137804761Y-93023571D01*
X137804761Y-93118809D01*
X138280952Y-93214047D01*
X137423809Y-93499761D02*
X137328571Y-93547380D01*
X137138095Y-93547380D01*
X137042857Y-93499761D01*
X136995238Y-93404523D01*
X136995238Y-93356904D01*
X137042857Y-93261666D01*
X137138095Y-93214047D01*
X137280952Y-93214047D01*
X137376190Y-93166428D01*
X137423809Y-93071190D01*
X137423809Y-93023571D01*
X137376190Y-92928333D01*
X137280952Y-92880714D01*
X137138095Y-92880714D01*
X137042857Y-92928333D01*
X136566666Y-93547380D02*
X136566666Y-92880714D01*
X136566666Y-92547380D02*
X136614285Y-92595000D01*
X136566666Y-92642619D01*
X136519047Y-92595000D01*
X136566666Y-92547380D01*
X136566666Y-92642619D01*
X135661904Y-92880714D02*
X135661904Y-93690238D01*
X135709523Y-93785476D01*
X135757142Y-93833095D01*
X135852380Y-93880714D01*
X135995238Y-93880714D01*
X136090476Y-93833095D01*
X135661904Y-93499761D02*
X135757142Y-93547380D01*
X135947619Y-93547380D01*
X136042857Y-93499761D01*
X136090476Y-93452142D01*
X136138095Y-93356904D01*
X136138095Y-93071190D01*
X136090476Y-92975952D01*
X136042857Y-92928333D01*
X135947619Y-92880714D01*
X135757142Y-92880714D01*
X135661904Y-92928333D01*
X135185714Y-92880714D02*
X135185714Y-93547380D01*
X135185714Y-92975952D02*
X135138095Y-92928333D01*
X135042857Y-92880714D01*
X134900000Y-92880714D01*
X134804761Y-92928333D01*
X134757142Y-93023571D01*
X134757142Y-93547380D01*
X133900000Y-93499761D02*
X133995238Y-93547380D01*
X134185714Y-93547380D01*
X134280952Y-93499761D01*
X134328571Y-93404523D01*
X134328571Y-93023571D01*
X134280952Y-92928333D01*
X134185714Y-92880714D01*
X133995238Y-92880714D01*
X133900000Y-92928333D01*
X133852380Y-93023571D01*
X133852380Y-93118809D01*
X134328571Y-93214047D01*
X132995238Y-93547380D02*
X132995238Y-92547380D01*
X132995238Y-93499761D02*
X133090476Y-93547380D01*
X133280952Y-93547380D01*
X133376190Y-93499761D01*
X133423809Y-93452142D01*
X133471428Y-93356904D01*
X133471428Y-93071190D01*
X133423809Y-92975952D01*
X133376190Y-92928333D01*
X133280952Y-92880714D01*
X133090476Y-92880714D01*
X132995238Y-92928333D01*
X131757142Y-93547380D02*
X131757142Y-92547380D01*
X131757142Y-92928333D02*
X131661904Y-92880714D01*
X131471428Y-92880714D01*
X131376190Y-92928333D01*
X131328571Y-92975952D01*
X131280952Y-93071190D01*
X131280952Y-93356904D01*
X131328571Y-93452142D01*
X131376190Y-93499761D01*
X131471428Y-93547380D01*
X131661904Y-93547380D01*
X131757142Y-93499761D01*
X130947619Y-92880714D02*
X130709523Y-93547380D01*
X130471428Y-92880714D02*
X130709523Y-93547380D01*
X130804761Y-93785476D01*
X130852380Y-93833095D01*
X130947619Y-93880714D01*
X137209523Y-94490714D02*
X137209523Y-95490714D01*
X137209523Y-94538333D02*
X137114285Y-94490714D01*
X136923809Y-94490714D01*
X136828571Y-94538333D01*
X136780952Y-94585952D01*
X136733333Y-94681190D01*
X136733333Y-94966904D01*
X136780952Y-95062142D01*
X136828571Y-95109761D01*
X136923809Y-95157380D01*
X137114285Y-95157380D01*
X137209523Y-95109761D01*
X135876190Y-95157380D02*
X135876190Y-94633571D01*
X135923809Y-94538333D01*
X136019047Y-94490714D01*
X136209523Y-94490714D01*
X136304761Y-94538333D01*
X135876190Y-95109761D02*
X135971428Y-95157380D01*
X136209523Y-95157380D01*
X136304761Y-95109761D01*
X136352380Y-95014523D01*
X136352380Y-94919285D01*
X136304761Y-94824047D01*
X136209523Y-94776428D01*
X135971428Y-94776428D01*
X135876190Y-94728809D01*
X135542857Y-94490714D02*
X135161904Y-94490714D01*
X135400000Y-94157380D02*
X135400000Y-95014523D01*
X135352380Y-95109761D01*
X135257142Y-95157380D01*
X135161904Y-95157380D01*
X134400000Y-95109761D02*
X134495238Y-95157380D01*
X134685714Y-95157380D01*
X134780952Y-95109761D01*
X134828571Y-95062142D01*
X134876190Y-94966904D01*
X134876190Y-94681190D01*
X134828571Y-94585952D01*
X134780952Y-94538333D01*
X134685714Y-94490714D01*
X134495238Y-94490714D01*
X134400000Y-94538333D01*
X133971428Y-95157380D02*
X133971428Y-94157380D01*
X133542857Y-95157380D02*
X133542857Y-94633571D01*
X133590476Y-94538333D01*
X133685714Y-94490714D01*
X133828571Y-94490714D01*
X133923809Y-94538333D01*
X133971428Y-94585952D01*
X133066666Y-95157380D02*
X133066666Y-94490714D01*
X133066666Y-94157380D02*
X133114285Y-94205000D01*
X133066666Y-94252619D01*
X133019047Y-94205000D01*
X133066666Y-94157380D01*
X133066666Y-94252619D01*
X132590476Y-95157380D02*
X132590476Y-94490714D01*
X132590476Y-94157380D02*
X132638095Y-94205000D01*
X132590476Y-94252619D01*
X132542857Y-94205000D01*
X132590476Y-94157380D01*
X132590476Y-94252619D01*
M02*
